<?xml version="1.0" encoding="UTF-8"?>
<svg version="1.1" xmlns="http://www.w3.org/2000/svg" width="134" height="141">
<path d="M0 0 C2.12977389 0.63072561 4.2632152 1.2476336 6.39746094 1.86303711 C16.82526676 4.91191287 16.82526676 4.91191287 20.24121094 7.18920898 C20.24121094 7.84920898 20.24121094 8.50920898 20.24121094 9.18920898 C18.59121094 9.51920898 16.94121094 9.84920898 15.24121094 10.18920898 C15.73621094 17.11920898 15.73621094 17.11920898 16.24121094 24.18920898 C14.59121094 24.51920898 12.94121094 24.84920898 11.24121094 25.18920898 C11.55058594 25.84920898 11.85996094 26.50920898 12.17871094 27.18920898 C13.49081349 30.89396913 13.84385228 34.28184889 14.24121094 38.18920898 C15.14871094 37.94170898 16.05621094 37.69420898 16.99121094 37.43920898 C20.24121094 37.18920898 20.24121094 37.18920898 22.61621094 39.12670898 C23.15246094 39.80733398 23.68871094 40.48795898 24.24121094 41.18920898 C22.84092253 45.64467211 20.59671835 48.00577887 17.24121094 51.18920898 C15.3222309 55.02716905 16.29190606 59.1340262 17.24121094 63.18920898 C18.88252944 66.93044969 20.70191455 70.49978218 22.64746094 74.08764648 C23.94338357 76.60961356 24.69293773 78.46479983 25.24121094 81.18920898 C25.76102086 82.7728786 26.28191997 84.35619098 26.80371094 85.93920898 C29.33785781 94.49039426 28.4943792 101.91910653 25.24121094 110.18920898 C22.99121094 112.93920898 22.99121094 112.93920898 20.24121094 115.18920898 C19.13143406 116.35054029 18.02767893 117.51764401 16.92871094 118.68920898 C13.44725795 122.17829673 9.66048028 124.98465394 5.24121094 127.18920898 C4.58121094 127.18920898 3.92121094 127.18920898 3.24121094 127.18920898 C3.57121094 128.50920898 3.90121094 129.82920898 4.24121094 131.18920898 C1.61365042 133.71166708 0.32717204 134.18179854 -3.38378906 134.50170898 C-6.75878906 134.18920898 -6.75878906 134.18920898 -8.75878906 132.18920898 C-13.37631774 131.57383914 -18.04310553 131.5352619 -22.69628906 131.37670898 C-23.99759766 131.31290039 -25.29890625 131.2490918 -26.63964844 131.18334961 C-27.88423828 131.13758789 -29.12882812 131.09182617 -30.41113281 131.04467773 C-31.55573975 130.99980225 -32.70034668 130.95492676 -33.87963867 130.90869141 C-37.14636169 131.22697045 -37.71340606 131.77595971 -39.75878906 134.18920898 C-42.69628906 134.62670898 -42.69628906 134.62670898 -45.75878906 134.18920898 C-48.32182677 132.26693071 -49.52060999 130.79259597 -50.69628906 127.81420898 C-51.67207697 124.95380499 -51.67207697 124.95380499 -54.32128906 122.43920898 C-57.538389 118.69774896 -57.78681365 115.02138273 -57.75878906 110.18920898 C-57.20589281 106.50891869 -56.29678689 102.96542033 -55.32128906 99.37670898 C-54.83953858 97.53787891 -54.36152154 95.69806564 -53.88769531 93.85717773 C-53.67185791 93.05562256 -53.45602051 92.25406738 -53.23364258 91.42822266 C-52.62047767 88.9185166 -52.62047767 88.9185166 -52.75878906 85.18920898 C-52.09878906 85.18920898 -51.43878906 85.18920898 -50.75878906 85.18920898 C-49.74103765 81.06940704 -49.20263574 77.41597423 -49.75878906 73.18920898 C-53.15246287 68.62129824 -57.32654661 64.99995647 -62.75878906 63.18920898 C-62.89027344 62.47764648 -63.02175781 61.76608398 -63.15722656 61.03295898 C-63.71641729 58.20176917 -63.71641729 58.20176917 -64.54785156 55.53295898 C-66.82879813 47.7734772 -66.82781777 41.1747246 -65.75878906 33.18920898 C-66.41878906 32.85920898 -67.07878906 32.52920898 -67.75878906 32.18920898 C-68.39264829 30.14677371 -68.7770541 28.09788379 -69.19628906 26.00170898 C-69.38191406 25.40358398 -69.56753906 24.80545898 -69.75878906 24.18920898 C-70.41878906 23.85920898 -71.07878906 23.52920898 -71.75878906 23.18920898 C-72.0921224 21.52254232 -72.42545573 19.85587565 -72.75878906 18.18920898 C-73.41878906 17.85920898 -74.07878906 17.52920898 -74.75878906 17.18920898 C-75.38378906 14.62670898 -75.38378906 14.62670898 -75.75878906 12.18920898 C-71.37406404 9.73140348 -67.7008697 9.51844297 -62.75878906 10.18920898 C-60.13245043 11.13311114 -57.61674033 12.23150054 -55.06738281 13.36499023 C-52.02380428 14.45161472 -49.80955105 14.15260751 -46.75878906 13.18920898 C-46.42878906 10.21920898 -46.09878906 7.24920898 -45.75878906 4.18920898 C-46.79003906 4.08608398 -47.82128906 3.98295898 -48.88378906 3.87670898 C-52.70962851 3.19793102 -55.39248931 2.07762104 -58.75878906 0.18920898 C-58.75878906 -0.47079102 -58.75878906 -1.13079102 -58.75878906 -1.81079102 C-49.58683326 -2.92747121 -40.42080333 -3.93486466 -31.19628906 -4.49829102 C-30.48424316 -4.54655029 -29.77219727 -4.59480957 -29.03857422 -4.64453125 C-18.81508701 -5.2077399 -9.73250394 -2.88685577 0 0 Z M7.24121094 10.18920898 C5.6909663 13.28969827 5.95129078 15.76815116 6.24121094 19.18920898 C8.0983728 22.09730442 8.0983728 22.09730442 10.24121094 24.18920898 C12.21215901 19.26183879 12.42120374 15.40900027 12.24121094 10.18920898 C10.59121094 10.18920898 8.94121094 10.18920898 7.24121094 10.18920898 Z M3.24121094 63.18920898 C0.27900182 72.07583635 4.87616194 81.93953589 7.80371094 90.31420898 C8.22845703 91.55686523 8.65320313 92.79952148 9.09082031 94.07983398 C10.13139903 97.11972685 11.18168443 100.1558794 12.24121094 103.18920898 C15.36343843 100.34169969 15.9470453 98.4598637 16.24121094 94.18920898 C14.8065947 86.54143857 11.52129611 79.13596618 8.61621094 71.93920898 C8.31521484 71.18792725 8.01421875 70.43664551 7.70410156 69.66259766 C6.31266287 65.72184333 6.31266287 65.72184333 3.24121094 63.18920898 Z " fill="#B83264" transform="translate(88.7587890625,5.810791015625)"/>
<path d="M0 0 C8.17615507 -0.79810624 13.812087 1.17373452 21 5 C21.639375 4.29875 22.27875 3.5975 22.9375 2.875 C26.22060775 0.86493403 26.59333931 0.73370406 30.125 1.4375 C33.86217335 2.46069938 37.20572648 4.00108997 40.6875 5.6875 C44.07662327 7.29911107 45.69314961 8.00547947 49.5 7.9375 C52.19240127 7.03584277 52.19240127 7.03584277 55 5 C55 5.66 55 6.32 55 7 C56.65 6.34 58.3 5.68 60 5 C60 5.99 60 6.98 60 8 C60.99 7.67 61.98 7.34 63 7 C74.18054226 5.70199509 74.18054226 5.70199509 77.89453125 8.3515625 C79.22910293 10.18206264 80.14064751 11.90692365 81 14 C81.433125 14.94875 81.86625 15.8975 82.3125 16.875 C83.21588457 20.98129352 83.65179244 24.82224603 83 29 C81.68334336 30.67987227 80.34736973 32.34466005 79 34 C78.50872998 35.94554092 78.07774435 37.90670504 77.6875 39.875 C76.24489233 46.07062031 74.24209335 49.39144631 69 53 C56.89518891 60.16644722 45.43562337 62.97796393 31.3125 60.53515625 C22.52309467 57.95632031 15.5485563 51.88030137 11 44 C8.91392441 39.06153535 8.80451563 34.75204691 8.75 29.5 C8.44347054 19.45058142 5.61000064 11.41500096 0 3 C0 2.01 0 1.02 0 0 Z " fill="#F8CF71" transform="translate(17,19)"/>
<path d="M0 0 C0.13051758 0.56283691 0.26103516 1.12567383 0.39550781 1.70556641 C1.01006715 4.34623426 1.62927025 6.98577566 2.25 9.625 C2.58789551 11.06456055 2.58789551 11.06456055 2.93261719 12.53320312 C4.21287414 17.91786635 5.61917318 23.21180422 7.25 28.5 C9.46742736 36.1026081 11.29134053 43.99004782 8.8125 51.6875 C7 54 7 54 3 56 C3 52.37 3 48.74 3 45 C2.34 45 1.68 45 1 45 C1.02320313 46.12019531 1.04640625 47.24039063 1.0703125 48.39453125 C1.08907237 49.86718084 1.10727234 51.33983763 1.125 52.8125 C1.14175781 53.55048828 1.15851563 54.28847656 1.17578125 55.04882812 C1.21074628 58.91246426 1.19397555 60.70903668 -1 64 C-3.625 64.1875 -3.625 64.1875 -6 64 C-6.99 61.36 -7.98 58.72 -9 56 C-9.33 57.32 -9.66 58.64 -10 60 C-18.58 60 -27.16 60 -36 60 C-36.495 57.525 -36.495 57.525 -37 55 C-37.66 55 -38.32 55 -39 55 C-38.938125 56.670625 -38.938125 56.670625 -38.875 58.375 C-39 62 -39 62 -41 64 C-45.55555556 63.44444444 -45.55555556 63.44444444 -47 62 C-47.07325168 59.13732433 -47.09238205 56.299281 -47.0625 53.4375 C-47.05798828 52.63119141 -47.05347656 51.82488281 -47.04882812 50.99414062 C-47.03700518 48.99606244 -47.01906914 46.99802217 -47 45 C-47.66 45 -48.32 45 -49 45 C-49 48.3 -49 51.6 -49 55 C-52 54 -52 54 -53.16015625 52.31640625 C-57.04896359 41.59053298 -52.55958394 29.55314144 -49.58544922 19.16015625 C-48.41282338 14.83347008 -47.66683321 10.42896682 -47 6 C-45.7315625 6.4640625 -45.7315625 6.4640625 -44.4375 6.9375 C-32.92126394 10.49706387 -19.84381592 10.03484248 -9.015625 4.46484375 C-7.29690663 3.41423989 -5.59721005 2.33134751 -3.92578125 1.20703125 C-2 0 -2 0 0 0 Z " fill="#F8D071" transform="translate(89,73)"/>
<path d="M0 0 C-0.06960937 1.32451172 -0.06960937 1.32451172 -0.140625 2.67578125 C-0.47850734 13.91036912 1.37229434 22.40865907 8.40234375 31.30859375 C9.97409144 32.97257113 11.55509669 34.1490801 13.4375 35.4375 C14.283125 36.283125 15.12875 37.12875 16 38 C15.69539729 46.09601938 13.32557381 53.64435725 11.08398438 61.38476562 C9.33147766 67.73707204 8.6181212 73.4141706 9 80 C-0.50629564 76.71965855 -8.30436342 67.68692767 -13 59 C-13.495 57.515 -13.495 57.515 -14 56 C-14.2371875 55.32324219 -14.474375 54.64648438 -14.71875 53.94921875 C-19.19097832 41.00211776 -19.31079213 28.78419184 -13.7109375 16.07421875 C-5.39591978 0 -5.39591978 0 0 0 Z " fill="#8D2B6A" transform="translate(21,42)"/>
<path d="M0 0 C4.42247505 1.43365949 7.51117221 3.82546057 10.875 6.9375 C11.4002124 7.42186523 11.9254248 7.90623047 12.46655273 8.40527344 C17.30665746 13.02683129 20.82898758 18.10564751 24 24 C24.598125 25.0725 25.19625 26.145 25.8125 27.25 C30.1267846 40.87405664 30.00842505 53.77282254 23.5 66.5 C22.8915625 67.6240625 22.283125 68.748125 21.65625 69.90625 C19.96758576 72.90221769 19.96758576 72.90221769 18.9140625 75.85546875 C18.61242187 76.56316406 18.31078125 77.27085938 18 78 C15.875 78.8125 15.875 78.8125 14 79 C14.16298584 78.42475586 14.32597168 77.84951172 14.49389648 77.25683594 C14.99037528 75.04291893 15.11479744 73.15326203 15.09765625 70.890625 C15.09443359 70.13652344 15.09121094 69.38242188 15.08789062 68.60546875 C15.07951172 67.82816406 15.07113281 67.05085938 15.0625 66.25 C15.05798828 65.45722656 15.05347656 64.66445312 15.04882812 63.84765625 C15.03708565 61.89840492 15.01915146 59.94919262 15 58 C14.34 57.67 13.68 57.34 13 57 C12.33333333 54.66666667 11.66666667 52.33333333 11 50 C10.34 49.67 9.68 49.34 9 49 C8.60235737 47.01178687 8.27571139 45.00875442 8 43 C7.63143136 40.76832815 7.63143136 40.76832815 7 39 C6.34 38.67 5.68 38.34 5 38 C2.98676929 32.96692323 3.38411206 27.51172496 5.375 22.625 C7 20 7 20 9 18 C9.99 18 10.98 18 12 18 C12 16.35 12 14.7 12 13 C11.34 12.67 10.68 12.34 10 12 C9.34 11.01 8.68 10.02 8 9 C4.43230448 8.26393501 4.43230448 8.26393501 1 8 C0.67 5.36 0.34 2.72 0 0 Z " fill="#8D2A68" transform="translate(103,33)"/>
<path d="M0 0 C3.30741843 1.38220472 4.75764777 2.75959834 6.6875 5.75 C9.54681034 9.75885495 12.67803651 12.12041183 16.8515625 14.67578125 C19.00517541 16.00318994 20.99805238 17.455511 23 19 C21.02 18.67 19.04 18.34 17 18 C16.97873047 18.86044922 16.97873047 18.86044922 16.95703125 19.73828125 C16.59200895 26.23962444 15.22072391 32.08857734 13.4375 38.3125 C11.12528491 46.53858729 8.66908853 56.01631817 11.90234375 64.31640625 C12.90393297 66.16238545 12.90393297 66.16238545 15 67 C15 63.7 15 60.4 15 57 C15.66 57 16.32 57 17 57 C17.495 65.415 17.495 65.415 18 74 C19.65 74.33 21.3 74.66 23 75 C24.96822886 73.03177114 24.66248381 69.65191291 25 67 C25.66 67 26.32 67 27 67 C27.33 68.32 27.66 69.64 28 71 C40.87 71.495 40.87 71.495 54 72 C54.33 70.35 54.66 68.7 55 67 C57.12508244 70.18762365 57.5020163 72.26512223 58 76 C60.47266765 75.65555119 60.47266765 75.65555119 63 75 C64.585869 71.828262 64.37866445 68.36486178 64.5625 64.875 C64.62727539 63.74384766 64.62727539 63.74384766 64.69335938 62.58984375 C64.7994832 60.72678112 64.90025001 58.86341476 65 57 C65.66 57 66.32 57 67 57 C67.495 61.95 67.495 61.95 68 67 C70.52588702 64.63707344 71.88820837 63.33537489 73 60 C73.01600515 49.68326994 70.39851615 40.36055242 67.43945312 30.57421875 C65.40873458 23.53607621 64.54698383 17.32330386 65 10 C65.99 10.495 65.99 10.495 67 11 C67.27124023 12.82373047 67.27124023 12.82373047 67.37109375 15.2421875 C67.90855676 21.87365422 69.94964939 27.8484835 72.0625 34.125 C72.43955078 35.27226563 72.81660156 36.41953125 73.20507812 37.6015625 C74.12761325 40.40420084 75.05938032 43.20339034 76 46 C76.33 45.67 76.66 45.34 77 45 C77.66 45 78.32 45 79 45 C78.59248958 37.60860415 77.41492814 31.00177279 75 24 C75.99 24 76.98 24 78 24 C81.8407041 30.78981618 83.20619739 37.2194835 82 45 C80.83053567 47.23289723 79.78753157 49.21246843 78 51 C77.79160985 52.64107242 77.63248275 54.28856293 77.5 55.9375 C77.10977702 60.78044597 77.10977702 60.78044597 76 63 C83.38753952 55.81766992 88.04210497 49.71318851 88.4375 39.1875 C88.32582079 33.68729902 86.96520241 29.29394897 84.77734375 24.27734375 C84 22 84 22 85 19 C86.9375 20.125 86.9375 20.125 89 22 C89.625 24.6875 89.625 24.6875 90 28 C90.34058953 29.29531293 90.69555729 30.58690456 91.0625 31.875 C93.07352877 39.93435014 92.02394857 47.31261266 89 55 C86.75 57.75 86.75 57.75 84 60 C82.89022312 61.16133131 81.786468 62.32843503 80.6875 63.5 C77.20604702 66.98908775 73.41926934 69.79544495 69 72 C68.34 72 67.68 72 67 72 C67.33 73.32 67.66 74.64 68 76 C65.37243948 78.5224581 64.0859611 78.99258956 60.375 79.3125 C57 79 57 79 55 77 C50.38247133 76.38463016 45.71568353 76.34605292 41.0625 76.1875 C39.76119141 76.12369141 38.45988281 76.05988281 37.11914062 75.99414062 C35.87455078 75.94837891 34.62996094 75.90261719 33.34765625 75.85546875 C32.20304932 75.81059326 31.05844238 75.76571777 29.87915039 75.71948242 C26.61242737 76.03776146 26.045383 76.58675073 24 79 C21.0625 79.4375 21.0625 79.4375 18 79 C15.43696229 77.07772172 14.23817907 75.60338699 13.0625 72.625 C12.08671209 69.76459601 12.08671209 69.76459601 9.4375 67.25 C6.22040007 63.50853997 5.97197541 59.83217375 6 55 C6.55289625 51.3197097 7.46200217 47.77621134 8.4375 44.1875 C8.91925048 42.34866992 9.39726752 40.50885666 9.87109375 38.66796875 C10.08693115 37.86641357 10.30276855 37.0648584 10.52514648 36.23901367 C11.13831139 33.72930762 11.13831139 33.72930762 11 30 C11.66 30 12.32 30 13 30 C14.01775141 25.88019805 14.55615332 22.22676524 14 18 C10.6063262 13.43208925 6.43224245 9.81074748 1 8 C0.67 5.36 0.34 2.72 0 0 Z " fill="#762E6F" transform="translate(25,61)"/>
<path d="M0 0 C0.375 2.1875 0.375 2.1875 0 5 C-2.9375 7.6875 -2.9375 7.6875 -6 10 C-8.2202124 14.44042481 -7.51543483 19.36420841 -6.07470703 23.93652344 C-4.80952227 27.11937185 -3.46150115 30.24871912 -2.0625 33.375 C-1.13631824 35.50763861 -0.21051888 37.64044334 0.71484375 39.7734375 C1.12855225 40.70591309 1.54226074 41.63838867 1.96850586 42.59912109 C5.0898875 49.86436773 5.13895984 57.80366838 2.4375 65.25 C0.21013787 70.18372686 -2.93354902 74.4143117 -7 78 C-7.66 78 -8.32 78 -9 78 C-8.91284983 76.06166004 -8.80467036 74.1242571 -8.6875 72.1875 C-8.62949219 71.10855469 -8.57148437 70.02960938 -8.51171875 68.91796875 C-7.9516317 65.72418991 -7.37865788 65.03622898 -5 63 C-0.91495931 50.74487793 -6.78291724 40.25344998 -11.94677734 29.30493164 C-14.99336178 22.63761508 -16.73207345 16.10259475 -14.27734375 8.87109375 C-10.92204482 2.58160628 -7.2042064 -0.67015873 0 0 Z " fill="#F6D17B" transform="translate(110,46)"/>
<path d="M0 0 C0.13051758 0.56283691 0.26103516 1.12567383 0.39550781 1.70556641 C1.01006715 4.34623426 1.62927025 6.98577566 2.25 9.625 C2.47526367 10.58470703 2.70052734 11.54441406 2.93261719 12.53320312 C4.21287414 17.91786635 5.61917318 23.21180422 7.25 28.5 C9.46742736 36.1026081 11.29134053 43.99004782 8.8125 51.6875 C7 54 7 54 3 56 C3 52.37 3 48.74 3 45 C2.34 45 1.68 45 1 45 C0.96261719 43.68386719 0.92523438 42.36773437 0.88671875 41.01171875 C1.18692444 25.42041694 1.18692444 25.42041694 -5 12 C-7.833632 11.74424655 -10.59871206 11.57970173 -13.4375 11.5 C-21.59526646 11.26982236 -21.59526646 11.26982236 -25 9 C-24.17757812 8.85304688 -23.35515625 8.70609375 -22.5078125 8.5546875 C-15.42487279 7.13155643 -9.93263396 5.24764739 -3.92578125 1.20703125 C-2 0 -2 0 0 0 Z " fill="#EDC363" transform="translate(89,73)"/>
<path d="M0 0 C5.00851988 4.32553989 5.36630338 9.76864995 6 16 C6.9075 15.7525 7.815 15.505 8.75 15.25 C12 15 12 15 14.375 16.9375 C14.91125 17.618125 15.4475 18.29875 16 19 C14.59971159 23.45546312 12.35550741 25.81656989 9 29 C7.13979284 32.72041432 8.24162161 37.02700278 9 41 C9.92316733 43.45427412 10.96948053 45.75510239 12.16015625 48.08984375 C13 50 13 50 13 53 C12.34 53 11.68 53 11 53 C3.05755396 36.38232271 3.05755396 36.38232271 5 30 C6.66926166 27.27859766 8.50923274 25.00680989 11 23 C11.66 23 12.32 23 13 23 C13 21.35 13 19.7 13 18 C6.76378813 19.0208604 6.76378813 19.0208604 2.0625 22.9375 C-1.61894572 28.40388911 -1.85357389 33.5789712 -1 40 C0.37304217 43.82290168 1.93670724 47.36755403 3.6875 51.03125 C5 54 5 54 5 57 C2 56 2 56 0.39453125 52.83984375 C-0.14390274 51.54361378 -0.67083429 50.24255932 -1.1875 48.9375 C-1.46013672 48.27427734 -1.73277344 47.61105469 -2.01367188 46.92773438 C-2.6856086 45.28915183 -3.34409628 43.64506597 -4 42 C-4.99 42.495 -4.99 42.495 -6 43 C-6.46523063 44.89533342 -6.46523063 44.89533342 -6.625 47.0625 C-6.74875 48.361875 -6.8725 49.66125 -7 51 C-7.33 51 -7.66 51 -8 51 C-8 49.02 -8 47.04 -8 45 C-8.71542969 45.47050781 -9.43085937 45.94101563 -10.16796875 46.42578125 C-23.09959037 54.50595362 -35.3741313 56.67142328 -50.12890625 53.4375 C-50.74636719 53.293125 -51.36382812 53.14875 -52 53 C-48.12367987 50.41578658 -45.08586331 50.94401142 -40.625 51.125 C-27.32115346 51.37267445 -17.0322343 47.77856434 -6.84765625 39.18359375 C-4.58176753 36.50572527 -4.15655555 34.48781943 -3.5 31.0625 C-2.23890468 25.29351146 -2.23890468 25.29351146 0.1875 22.3125 C2.56947231 19.27343188 2.49881161 17.26926395 2.33984375 13.4921875 C1.75057768 9.17090296 0.4398882 5.10539551 -1 1 C-0.67 0.67 -0.34 0.34 0 0 Z " fill="#AA3163" transform="translate(97,28)"/>
<path d="M0 0 C11.49961146 -1.06072551 11.49961146 -1.06072551 14.90625 1.34765625 C16.22743422 3.18039656 17.14283069 4.91224108 18 7 C18.433125 7.94875 18.86625 8.8975 19.3125 9.875 C20.21351233 13.97051058 20.80256295 17.84272392 20 22 C17.6875 24 17.6875 24 15 26 C13.31888178 29.72247607 12.34516013 33.68211585 11.3125 37.625 C8.50040566 42.71355166 3.80756518 46.25760716 -1.5 48.4375 C-2.325 48.623125 -3.15 48.80875 -4 49 C-3.62488281 48.46632812 -3.24976562 47.93265625 -2.86328125 47.3828125 C4.13870717 37.18848175 9.41244717 27.42138081 9.1875 14.8125 C9.18685547 14.11447266 9.18621094 13.41644531 9.18554688 12.69726562 C9.15588539 9.23346342 8.84653295 6.38613178 8 3 C5.36 2.34 2.72 1.68 0 1 C0 0.67 0 0.34 0 0 Z " fill="#EFC463" transform="translate(80,26)"/>
<path d="M0 0 C0.99 0.495 0.99 0.495 2 1 C2.27124023 2.82373047 2.27124023 2.82373047 2.37109375 5.2421875 C2.90855676 11.87365422 4.94964939 17.8484835 7.0625 24.125 C7.43955078 25.27226563 7.81660156 26.41953125 8.20507812 27.6015625 C9.12761325 30.40420084 10.05938032 33.20339034 11 36 C11.495 35.505 11.495 35.505 12 35 C12.66 35 13.32 35 14 35 C13.59248958 27.60860415 12.41492814 21.00177279 10 14 C10.99 14 11.98 14 13 14 C16.8407041 20.78981618 18.20619739 27.2194835 17 35 C15.83053567 37.23289723 14.78753157 39.21246843 13 41 C12.76712992 42.68183948 12.58735834 44.3712416 12.4375 46.0625 C12.35371094 46.98160156 12.26992187 47.90070313 12.18359375 48.84765625 C12.12300781 49.55792969 12.06242187 50.26820312 12 51 C11.67 51 11.34 51 11 51 C10.67 48.03 10.34 45.06 10 42 C9.01 42.495 9.01 42.495 8 43 C7.75765625 42.030625 7.5153125 41.06125 7.265625 40.0625 C7.10545898 39.42272217 6.94529297 38.78294434 6.78027344 38.1237793 C6.42247333 36.69076681 6.06639284 35.25732401 5.71191406 33.82348633 C4.79492619 30.12451196 3.85456888 26.43625168 2.84375 22.76171875 C0.76719096 15.09666572 -0.61056349 8.00516577 0 0 Z " fill="#81316D" transform="translate(90,71)"/>
<path d="M0 0 C0.7528125 -0.00515625 1.505625 -0.0103125 2.28125 -0.015625 C4.7296721 0.27749596 6.37304054 1.03183231 8.5 2.25 C5.85541621 3.57229189 3.82238699 3.34677194 0.875 3.3125 C-0.12789062 3.30347656 -1.13078125 3.29445313 -2.1640625 3.28515625 C-2.93492188 3.27355469 -3.70578125 3.26195312 -4.5 3.25 C-4.2326001 3.76159668 -3.9652002 4.27319336 -3.68969727 4.80029297 C1.94145061 15.78843591 5.57934047 25.09541337 5.5 37.52734375 C5.5 40.65007037 5.7458334 43.23922551 6.5 46.25 C5.18 45.92 3.86 45.59 2.5 45.25 C0.71459645 37.62145754 0.38967504 31.00727034 1.5 23.25 C0.84 22.92 0.18 22.59 -0.5 22.25 C-1.13385922 20.20756472 -1.51826504 18.15867481 -1.9375 16.0625 C-2.123125 15.464375 -2.30875 14.86625 -2.5 14.25 C-3.16 13.92 -3.82 13.59 -4.5 13.25 C-4.83333333 11.58333333 -5.16666667 9.91666667 -5.5 8.25 C-6.16 7.92 -6.82 7.59 -7.5 7.25 C-8.125 4.6875 -8.125 4.6875 -8.5 2.25 C-5.54497399 0.55757601 -3.40004978 -0.02328801 0 0 Z " fill="#A13A66" transform="translate(21.5,15.75)"/>
<path d="M0 0 C1.53166168 4.08443115 0.63081652 7.79455657 0 12 C-0.33 12 -0.66 12 -1 12 C-1 10.02 -1 8.04 -1 6 C-1.71542969 6.47050781 -2.43085937 6.94101563 -3.16796875 7.42578125 C-16.09959037 15.50595362 -28.3741313 17.67142328 -43.12890625 14.4375 C-43.74636719 14.293125 -44.36382812 14.14875 -45 14 C-41.12367987 11.41578658 -38.08586331 11.94401142 -33.625 12.125 C-21.55820813 12.34964451 -11.54780037 9.6469797 -2 2 C-1.34 1.34 -0.68 0.68 0 0 Z " fill="#9C4274" transform="translate(90,67)"/>
<path d="M0 0 C0 2.97 0 5.94 0 9 C2.76276177 8.47731534 5.3260876 7.89130413 8 7 C7.6875 8.875 7.6875 8.875 7 11 C1.77468437 14.48354375 -3.8131337 15.30934332 -10 15 C-10.33 14.01 -10.66 13.02 -11 12 C-9.02 12 -7.04 12 -5 12 C-4.67 10.68 -4.34 9.36 -4 8 C-5.32 7.01 -6.64 6.02 -8 5 C-7.67 3.35 -7.34 1.7 -7 0 C-4 -1 -4 -1 0 0 Z " fill="#82356F" transform="translate(69,55)"/>
<path d="M0 0 C0.66 0 1.32 0 2 0 C2.33 1.32 2.66 2.64 3 4 C15.87 4.495 15.87 4.495 29 5 C29.33 3.35 29.66 1.7 30 0 C31.9451 2.91765 32.45276317 4.62537285 33 8 C31.68 8 30.36 8 29 8 C28.13375 8.165 27.2675 8.33 26.375 8.5 C21.90195152 9.16267385 17.51283027 9.08026773 13 9 C13 8.34 13 7.68 13 7 C8.71 7 4.42 7 0 7 C0 4.69 0 2.38 0 0 Z " fill="#6B2D78" transform="translate(50,128)"/>
<path d="M0 0 C2.9375 0.9375 2.9375 0.9375 4.3125 3.5 C4.51875 4.304375 4.725 5.10875 4.9375 5.9375 C2.72203223 8.7641313 0.47394666 11.40105334 -2.0625 13.9375 C-3.92270716 17.65791432 -2.82087839 21.96450278 -2.0625 25.9375 C-1.13933267 28.39177412 -0.09301947 30.69260239 1.09765625 33.02734375 C1.9375 34.9375 1.9375 34.9375 1.9375 37.9375 C1.2775 37.9375 0.6175 37.9375 -0.0625 37.9375 C-8.00494604 21.31982271 -8.00494604 21.31982271 -6.0625 14.9375 C-4.39323834 12.21609766 -2.55326726 9.94430989 -0.0625 7.9375 C0.5975 7.9375 1.2575 7.9375 1.9375 7.9375 C1.9375 6.2875 1.9375 4.6375 1.9375 2.9375 C-0.3725 3.2675 -2.6825 3.5975 -5.0625 3.9375 C-5.3925 3.2775 -5.7225 2.6175 -6.0625 1.9375 C-3.0625 -0.0625 -3.0625 -0.0625 0 0 Z " fill="#A14173" transform="translate(108.0625,43.0625)"/>
<path d="M0 0 C3.30741843 1.38220472 4.75764777 2.75959834 6.6875 5.75 C9.54681034 9.75885495 12.67803651 12.12041183 16.8515625 14.67578125 C19.00517541 16.00318994 20.99805238 17.455511 23 19 C21.02 18.67 19.04 18.34 17 18 C16.67 21.63 16.34 25.26 16 29 C15.34 28.67 14.68 28.34 14 28 C14.11601563 27.38253906 14.23203125 26.76507813 14.3515625 26.12890625 C14.83553138 21.58651261 14.82389824 19.02266558 11.87890625 15.3671875 C6.93864629 10.86505801 6.93864629 10.86505801 1 8 C0.67 5.36 0.34 2.72 0 0 Z " fill="#842B5E" transform="translate(25,61)"/>
<path d="M0 0 C4.61827322 1.44853588 7.67747442 4.10801815 11.125 7.375 C11.91197266 8.09816406 11.91197266 8.09816406 12.71484375 8.8359375 C18.24306622 13.98628147 18.24306622 13.98628147 20 17 C19.67 17.99 19.34 18.98 19 20 C17.35 18.35 15.7 16.7 14 15 C13.67 15.66 13.34 16.32 13 17 C12.67 16.01 12.34 15.02 12 14 C11.34 13.34 10.68 12.68 10 12 C9.34 11.01 8.68 10.02 8 9 C4.43230448 8.26393501 4.43230448 8.26393501 1 8 C0.67 5.36 0.34 2.72 0 0 Z " fill="#BD3A65" transform="translate(103,33)"/>
<path d="M0 0 C0.99 0.33 1.98 0.66 3 1 C3.05422947 2.4370809 3.09289723 3.87475462 3.125 5.3125 C3.14820312 6.11300781 3.17140625 6.91351563 3.1953125 7.73828125 C3 10 3 10 1 13 C-1.625 13.1875 -1.625 13.1875 -4 13 C-4.33 10.69 -4.66 8.38 -5 6 C-4.34 6 -3.68 6 -3 6 C-2.690625 5.195625 -2.38125 4.39125 -2.0625 3.5625 C-1 1 -1 1 0 0 Z " fill="#EAC36D" transform="translate(87,124)"/>
<path d="M0 0 C3 1 3 1 5 4 C5.680625 3.855625 6.36125 3.71125 7.0625 3.5625 C13.05820026 2.41438718 17.93742395 1.88646562 24 3 C24 3.66 24 4.32 24 5 C23.24074219 4.96519531 22.48148438 4.93039063 21.69921875 4.89453125 C20.70535156 4.86746094 19.71148437 4.84039062 18.6875 4.8125 C17.70136719 4.77769531 16.71523438 4.74289063 15.69921875 4.70703125 C12.56629251 5.0470739 12.00747049 5.70912191 10 8 C6.29461199 8.5518663 4.67001113 8.49369241 1.625 6.25 C0 4 0 4 0 0 Z " fill="#5C226B" transform="translate(39,132)"/>
<path d="M0 0 C0.33 0 0.66 0 1 0 C1.07347656 1.01320313 1.07347656 1.01320313 1.1484375 2.046875 C1.22320312 2.93890625 1.29796875 3.8309375 1.375 4.75 C1.44460937 5.63171875 1.51421875 6.5134375 1.5859375 7.421875 C2.00383252 10.02386288 2.60645133 11.77433233 4 14 C4.66 14.33 5.32 14.66 6 15 C6 11.7 6 8.4 6 5 C6.66 5 7.32 5 8 5 C8 9.95 8 14.9 8 20 C1.4180791 17.36723164 1.4180791 17.36723164 -1 14 C-1.171875 10.546875 -1.171875 10.546875 -0.75 6.75 C-0.62109375 5.48671875 -0.4921875 4.2234375 -0.359375 2.921875 C-0.24078125 1.95765625 -0.1221875 0.9934375 0 0 Z " fill="#7A3974" transform="translate(34,113)"/>
<path d="M0 0 C0.7528125 -0.00515625 1.505625 -0.0103125 2.28125 -0.015625 C4.7296721 0.27749596 6.37304054 1.03183231 8.5 2.25 C5.85541621 3.57229189 3.82238699 3.34677194 0.875 3.3125 C-0.12789062 3.30347656 -1.13078125 3.29445313 -2.1640625 3.28515625 C-2.93492188 3.27355469 -3.70578125 3.26195312 -4.5 3.25 C-4.16226562 4.02730469 -3.82453125 4.80460937 -3.4765625 5.60546875 C-2.43048712 8.43824089 -2.47522065 9.48309576 -3.5 12.25 C-3.78875 11.610625 -4.0775 10.97125 -4.375 10.3125 C-5.32823451 8.09793921 -5.32823451 8.09793921 -7.5 7.25 C-8.125 4.6875 -8.125 4.6875 -8.5 2.25 C-5.54497399 0.55757601 -3.40004978 -0.02328801 0 0 Z " fill="#A6315C" transform="translate(21.5,15.75)"/>
<path d="M0 0 C7.35174806 -0.55253221 12.511583 0.48935892 19 4 C18.67 5.65 18.34 7.3 18 9 C17.53851563 8.66226562 17.07703125 8.32453125 16.6015625 7.9765625 C11.24415465 4.31319666 6.39981544 2.87866319 0 2 C0 1.34 0 0.68 0 0 Z " fill="#FAEBC3" transform="translate(17,19)"/>
<path d="M0 0 C-0.33 2.64 -0.66 5.28 -1 8 C-5.75 7.25 -5.75 7.25 -8 5 C-7.625 2.375 -7.625 2.375 -7 0 C-3.86650268 -1.04449911 -3.01031744 -0.93423645 0 0 Z " fill="#A63368" transform="translate(69,55)"/>
<path d="M0 0 C2.29296875 0.0703125 2.29296875 0.0703125 5 1 C6.38742899 3.35351294 7.35984186 5.35636291 8.3125 7.875 C8.57611328 8.51308594 8.83972656 9.15117188 9.11132812 9.80859375 C10.26722414 12.68482331 11 14.87529944 11 18 C8 17 8 17 6.39453125 13.83984375 C5.85609726 12.54361378 5.32916571 11.24255932 4.8125 9.9375 C4.53986328 9.27427734 4.26722656 8.61105469 3.98632812 7.92773438 C3.3143914 6.28915183 2.65590372 4.64506597 2 3 C1.34 3 0.68 3 0 3 C0 2.01 0 1.02 0 0 Z " fill="#913969" transform="translate(91,67)"/>
<path d="M0 0 C1.9375 1.125 1.9375 1.125 4 3 C4.6875 5.625 4.6875 5.625 5 9 C5.10183594 9.73089844 5.20367187 10.46179688 5.30859375 11.21484375 C5.87055224 15.38443698 6.19358885 18.8887495 5 23 C4.67 23 4.34 23 4 23 C3.89042969 22.24976562 3.78085938 21.49953125 3.66796875 20.7265625 C2.61713944 13.94316028 1.16201198 7.51486278 -1 1 C-0.67 0.67 -0.34 0.34 0 0 Z " fill="#8A3776" transform="translate(110,80)"/>
<path d="M0 0 C4.56454251 0.54339792 7.9728176 1.79463821 12 4 C8.25 5.125 8.25 5.125 6 4 C5.67 7.63 5.34 11.26 5 15 C4.34 14.67 3.68 14.34 3 14 C3.03480469 13.32453125 3.06960937 12.6490625 3.10546875 11.953125 C3.13253906 11.06109375 3.15960938 10.1690625 3.1875 9.25 C3.22230469 8.36828125 3.25710937 7.4865625 3.29296875 6.578125 C2.94923684 3.55328417 1.99772541 2.24416398 0 0 Z " fill="#89286B" transform="translate(36,75)"/>
<path d="M0 0 C0.33 4.62 0.66 9.24 1 14 C-0.98 14 -2.96 14 -5 14 C-4.71926927 11.85270859 -4.42511501 9.70716807 -4.125 7.5625 C-3.96257812 6.36753906 -3.80015625 5.17257813 -3.6328125 3.94140625 C-3.42398438 2.97074219 -3.21515625 2.00007813 -3 1 C-1 0 -1 0 0 0 Z " fill="#602A55" transform="translate(104,16)"/>
<path d="M0 0 C0.33 1.32 0.66 2.64 1 4 C3.97 4 6.94 4 10 4 C9.67 5.32 9.34 6.64 9 8 C5.625 8.125 5.625 8.125 2 8 C1.34 7.34 0.68 6.68 0 6 C-2.32275177 5.59952556 -4.65739357 5.2602896 -7 5 C-7 4.67 -7 4.34 -7 4 C-5.02 3.67 -3.04 3.34 -1 3 C-0.67 2.01 -0.34 1.02 0 0 Z " fill="#521B61" transform="translate(80,132)"/>
<path d="M0 0 C1.9451 2.91765 2.45276317 4.62537285 3 8 C-0.00460799 8 -2.7917598 7.86751181 -5.765625 7.5625 C-6.65507813 7.47226563 -7.54453125 7.38203125 -8.4609375 7.2890625 C-9.84152344 7.14597656 -9.84152344 7.14597656 -11.25 7 C-12.65378906 6.85691406 -12.65378906 6.85691406 -14.0859375 6.7109375 C-16.39081412 6.47574601 -18.69548501 6.23870458 -21 6 C-21 5.67 -21 5.34 -21 5 C-14.4 5 -7.8 5 -1 5 C-0.67 3.35 -0.34 1.7 0 0 Z " fill="#7C4175" transform="translate(80,128)"/>
<path d="M0 0 C0.66 0.33 1.32 0.66 2 1 C2 2.65 2 4.3 2 6 C2.99 6.33 3.98 6.66 5 7 C3.38405168 9.04119788 1.7143618 11.04072937 0 13 C-0.66 13 -1.32 13 -2 13 C-1.85966889 11.02043559 -1.7125877 9.04134859 -1.5625 7.0625 C-1.48128906 5.96035156 -1.40007812 4.85820313 -1.31640625 3.72265625 C-1 1 -1 1 0 0 Z " fill="#DDB049" transform="translate(103,111)"/>
<path d="M0 0 C0.33 0 0.66 0 1 0 C1.38614349 6.8218683 0.00865708 12.49577707 -2 19 C-2.66 19 -3.32 19 -4 19 C-3.59060025 12.23784552 -2.43046191 6.32837252 0 0 Z " fill="#762C6A" transform="translate(116,97)"/>
<path d="M0 0 C0.66 0.33 1.32 0.66 2 1 C1.360625 1.763125 0.72125 2.52625 0.0625 3.3125 C-2.818801 7.06692251 -3.18321383 10.08188224 -3.5625 14.6875 C-3.64628906 15.68136719 -3.73007813 16.67523438 -3.81640625 17.69921875 C-3.87699219 18.45847656 -3.93757813 19.21773437 -4 20 C-5.32 19.67 -6.64 19.34 -8 19 C-7.43190455 16.7669014 -6.84485234 14.5386205 -6.25 12.3125 C-5.92515625 11.07113281 -5.6003125 9.82976563 -5.265625 8.55078125 C-3.99215703 4.9779961 -2.53446784 2.78471991 0 0 Z " fill="#A53F71" transform="translate(99,48)"/>
<path d="M0 0 C0.33 0.99 0.66 1.98 1 3 C-0.2375 2.9175 -1.475 2.835 -2.75 2.75 C-6.07809389 2.7264799 -6.71423603 2.75935666 -9.375 5 C-9.91125 5.66 -10.4475 6.32 -11 7 C-11.66 7 -12.32 7 -13 7 C-12.68087403 4.02149096 -11.93832742 2.93288572 -9.875 0.6875 C-6.15078417 -1.49845277 -4.11378579 -0.9679496 0 0 Z " fill="#B64468" transform="translate(52,44)"/>
<path d="M0 0 C0.66 0 1.32 0 2 0 C1.67 5.61 1.34 11.22 1 17 C-1.23551759 13.64672361 -1.17283528 13.09256343 -0.625 9.3125 C-0.51414062 8.50425781 -0.40328125 7.69601563 -0.2890625 6.86328125 C-0.14597656 5.94095703 -0.14597656 5.94095703 0 5 C-1.32 5.99 -2.64 6.98 -4 8 C-4.66 7.67 -5.32 7.34 -6 7 C-5.04882866 5.8274869 -4.08882991 4.66212985 -3.125 3.5 C-2.59132813 2.8503125 -2.05765625 2.200625 -1.5078125 1.53125 C-0.76144531 0.77328125 -0.76144531 0.77328125 0 0 Z " fill="#BD3463" transform="translate(19,42)"/>
<path d="M0 0 C0.66 0.33 1.32 0.66 2 1 C2 1.66 2 2.32 2 3 C1.38511719 3.03738281 0.77023438 3.07476562 0.13671875 3.11328125 C-1.07564453 3.21189453 -1.07564453 3.21189453 -2.3125 3.3125 C-3.11300781 3.37050781 -3.91351563 3.42851563 -4.73828125 3.48828125 C-7.38742483 4.0876557 -8.20473841 5.03626811 -10 7 C-10.66 7 -11.32 7 -12 7 C-9.71417245 0.31835025 -6.84441478 -0.37333172 0 0 Z " fill="#A73D69" transform="translate(81,34)"/>
<path d="M0 0 C0.33 0 0.66 0 1 0 C1.6875 3.3125 1.6875 3.3125 2 7 C1.2884375 7.69609375 1.2884375 7.69609375 0.5625 8.40625 C-1.57394481 10.58542371 -1.49265842 12.18693962 -1.6875 15.1875 C-1.75324219 16.08855469 -1.81898437 16.98960938 -1.88671875 17.91796875 C-1.92410156 18.60503906 -1.96148437 19.29210937 -2 20 C-2.33 20 -2.66 20 -3 20 C-3.33 15.05 -3.66 10.1 -4 5 C-3.34 5 -2.68 5 -2 5 C-1.34 4.67 -0.68 4.34 0 4 C0 2.68 0 1.36 0 0 Z " fill="#823E68" transform="translate(104,102)"/>
<path d="M0 0 C0.99 0.495 0.99 0.495 2 1 C2.34375 2.96875 2.34375 2.96875 2.5 5.5 C2.89565485 10.49244483 3.82301493 15.13512838 5 20 C4.34 20.33 3.68 20.66 3 21 C0.39241413 13.84466021 -0.38999191 7.59762024 0 0 Z " fill="#7A2D61" transform="translate(90,71)"/>
<path d="M0 0 C4.02992782 0.55312735 8.02022924 1.1558062 12 2 C12.33 2.99 12.66 3.98 13 5 C11.328125 6.1484375 11.328125 6.1484375 9 7 C6.421875 6.1015625 6.421875 6.1015625 3.75 4.625 C2.85796875 4.14289062 1.9659375 3.66078125 1.046875 3.1640625 C0.37140625 2.77992187 -0.3040625 2.39578125 -1 2 C-0.67 1.34 -0.34 0.68 0 0 Z " fill="#BB406D" transform="translate(28,18)"/>
<path d="M0 0 C2.9375 0.9375 2.9375 0.9375 4.4375 3.3125 C4.9375 5.9375 4.9375 5.9375 2.9375 8.9375 C1.9475 8.6075 0.9575 8.2775 -0.0625 7.9375 C0.5975 7.9375 1.2575 7.9375 1.9375 7.9375 C1.9375 6.2875 1.9375 4.6375 1.9375 2.9375 C-0.3725 3.2675 -2.6825 3.5975 -5.0625 3.9375 C-5.3925 3.2775 -5.7225 2.6175 -6.0625 1.9375 C-3.0625 -0.0625 -3.0625 -0.0625 0 0 Z " fill="#AD4F71" transform="translate(108.0625,43.0625)"/>
<path d="M0 0 C2.12161334 2.12161334 2.92986249 3.7733159 4.125 6.5 C4.47820313 7.2940625 4.83140625 8.088125 5.1953125 8.90625 C6 11 6 11 6 13 C4.68 12.67 3.36 12.34 2 12 C1.566875 10.2984375 1.566875 10.2984375 1.125 8.5625 C0.75375 7.386875 0.3825 6.21125 0 5 C-0.66 4.67 -1.32 4.34 -2 4 C-1.34 2.68 -0.68 1.36 0 0 Z " fill="#AE3C68" transform="translate(19,25)"/>
<path d="M0 0 C0.33 0 0.66 0 1 0 C1.33 1.98 1.66 3.96 2 6 C2.99 6 3.98 6 5 6 C4.5359375 6.86625 4.5359375 6.86625 4.0625 7.75 C3.07416636 9.84294184 2.4831387 11.74535275 2 14 C0.68 14.33 -0.64 14.66 -2 15 C-1.34 10.05 -0.68 5.1 0 0 Z " fill="#4E1750" transform="translate(119,97)"/>
<path d="M0 0 C-4.75 4 -4.75 4 -7 4 C-6.67 5.32 -6.34 6.64 -6 8 C-6.66 8 -7.32 8 -8 8 C-8 5.36 -8 2.72 -8 0 C-5.13822943 -1.43088528 -3.06624227 -0.59991697 0 0 Z " fill="#5C2266" transform="translate(99,129)"/>
<path d="M0 0 C1.60379341 -0.05416188 3.20811406 -0.09286638 4.8125 -0.125 C5.70582031 -0.14820312 6.59914063 -0.17140625 7.51953125 -0.1953125 C10 0 10 0 13 2 C11.58456585 2.19658808 10.16755969 2.38187546 8.75 2.5625 C7.96109375 2.66691406 7.1721875 2.77132813 6.359375 2.87890625 C3.99467126 3.00027349 2.2488963 2.69633257 0 2 C0 1.34 0 0.68 0 0 Z " fill="#F1D0B3" transform="translate(17,19)"/>
<path d="M0 0 C0.66 0 1.32 0 2 0 C2.33 2.97 2.66 5.94 3 9 C-0.93673644 7.68775452 -3.22719294 6.08089673 -6 3 C-3.83125748 3.50603992 -2.00032373 3.99983813 0 5 C0 3.35 0 1.7 0 0 Z " fill="#531961" transform="translate(27,113)"/>
<path d="M0 0 C0 2.97 0 5.94 0 9 C-0.99 8.67 -1.98 8.34 -3 8 C-3.33 6.02 -3.66 4.04 -4 2 C-1 0 -1 0 0 0 Z " fill="#E9BE5A" transform="translate(40,119)"/>
<path d="M0 0 C3.14027363 0.33645789 4.05098295 1.05236086 6.3125 3.375 C6.869375 4.24125 7.42625 5.1075 8 6 C7.67 6.99 7.34 7.98 7 9 C5.35 7.35 3.7 5.7 2 4 C1.67 4.66 1.34 5.32 1 6 C0.67 4.02 0.34 2.04 0 0 Z " fill="#BF386E" transform="translate(115,44)"/>
<path d="M0 0 C0.99 1.485 0.99 1.485 2 3 C1.34 3 0.68 3 0 3 C0 3.66 0 4.32 0 5 C-2 4 -2 4 -4 1 C-7.56769552 0.26393501 -7.56769552 0.26393501 -11 0 C-11 -0.33 -11 -0.66 -11 -1 C-3.3389313 -2.47328244 -3.3389313 -2.47328244 0 0 Z " fill="#8D254F" transform="translate(115,41)"/>
<path d="M0 0 C0.33 0 0.66 0 1 0 C1.05395478 1.62463842 1.09277195 3.24978541 1.125 4.875 C1.14820313 5.77992187 1.17140625 6.68484375 1.1953125 7.6171875 C1 10 1 10 -1 12 C-1.2226746 10.56465159 -1.42761906 9.12654475 -1.625 7.6875 C-1.74101562 6.88699219 -1.85703125 6.08648437 -1.9765625 5.26171875 C-2 3 -2 3 0 0 Z " fill="#611F64" transform="translate(33,113)"/>
<path d="M0 0 C-0.33 0.66 -0.66 1.32 -1 2 C-4.98866127 2.99716532 -8.0323069 3.0502717 -12 2 C-7.72170329 -0.29194467 -4.74957752 -1.52664992 0 0 Z " fill="#A45173" transform="translate(78,78)"/>
<path d="M0 0 C0.33 0 0.66 0 1 0 C1 3.63 1 7.26 1 11 C0.34 11 -0.32 11 -1 11 C-1.33 11.66 -1.66 12.32 -2 13 C-1.85769192 11.58297487 -1.71099254 10.1663904 -1.5625 8.75 C-1.48128906 7.96109375 -1.40007813 7.1721875 -1.31640625 6.359375 C-1.02365007 4.17635361 -0.57935581 2.1226818 0 0 Z " fill="#6B2666" transform="translate(34,102)"/>
<path d="M0 0 C0.33 0 0.66 0 1 0 C0.6875 3.375 0.6875 3.375 0 7 C-0.99 7.66 -1.98 8.32 -3 9 C-3.66 8.34 -4.32 7.68 -5 7 C-4.360625 6.21625 -3.72125 5.4325 -3.0625 4.625 C-1.01857687 2.20460719 -1.01857687 2.20460719 0 0 Z " fill="#7A3171" transform="translate(111,112)"/>
<path d="M0 0 C0.33 0 0.66 0 1 0 C1.28571429 8.57142857 1.28571429 8.57142857 -1 12 C-2.11658501 7.31034294 -1.80619523 4.46236469 0 0 Z " fill="#5D1E4F" transform="translate(116,97)"/>
<path d="M0 0 C1.32 0.99 2.64 1.98 4 3 C3.67 4.65 3.34 6.3 3 8 C2.34 8 1.68 8 1 8 C0.34 5.69 -0.32 3.38 -1 1 C-0.67 0.67 -0.34 0.34 0 0 Z " fill="#843166" transform="translate(110,80)"/>
<path d="M0 0 C1.98 0 3.96 0 6 0 C6 1.32 6 2.64 6 4 C4.35 3.67 2.7 3.34 1 3 C0.67 2.01 0.34 1.02 0 0 Z " fill="#B52D5C" transform="translate(30,4)"/>
<path d="M0 0 C-0.33 1.32 -0.66 2.64 -1 4 C-2.65 4 -4.3 4 -6 4 C-6 3.01 -6 2.02 -6 1 C-3.92446352 0.4465236 -2.15634036 0 0 0 Z " fill="#612672" transform="translate(90,136)"/>
<path d="M0 0 C0.66 0.33 1.32 0.66 2 1 C2 2.65 2 4.3 2 6 C2.99 6.33 3.98 6.66 5 7 C4.01 8.485 4.01 8.485 3 10 C2.34 10 1.68 10 1 10 C1 7.36 1 4.72 1 2 C0.34 1.67 -0.32 1.34 -1 1 C-0.67 0.67 -0.34 0.34 0 0 Z " fill="#E6BA59" transform="translate(103,111)"/>
<path d="M0 0 C1.2380014 3.57644848 0.74926071 6.33694766 0 10 C-0.66 9.67 -1.32 9.34 -2 9 C-2.25 3.375 -2.25 3.375 0 0 Z " fill="#8E356F" transform="translate(41,80)"/>
<path d="M0 0 C0 0.66 0 1.32 0 2 C-3.01031744 2.93423645 -3.86650268 3.04449911 -7 2 C-7 1.34 -7 0.68 -7 0 C-3.86650268 -1.04449911 -3.01031744 -0.93423645 0 0 Z " fill="#BE3C66" transform="translate(69,55)"/>
<path d="M0 0 C0.33 0 0.66 0 1 0 C1.33 2.31 1.66 4.62 2 7 C1.01 7.66 0.02 8.32 -1 9 C-1.33 7.35 -1.66 5.7 -2 4 C-1.34 4 -0.68 4 0 4 C0 2.68 0 1.36 0 0 Z " fill="#63255A" transform="translate(104,102)"/>
<path d="M0 0 C0.66 0.66 1.32 1.32 2 2 C-2.625 5 -2.625 5 -6 5 C-6 4.34 -6 3.68 -6 3 C-4.02 2.01 -2.04 1.02 0 0 Z " fill="#963870" transform="translate(83,73)"/>
<path d="M0 0 C2.125 0.375 2.125 0.375 4 1 C2.37660195 2.70884005 0.70680947 4.37446717 -1 6 C-1.66 6 -2.32 6 -3 6 C-2.42655063 3.13275314 -2.1385485 2.1385485 0 0 Z " fill="#8F316C" transform="translate(42,45)"/>
<path d="M0 0 C0.33 0.66 0.66 1.32 1 2 C2.65 1.34 4.3 0.68 6 0 C6 0.99 6 1.98 6 3 C6.66 3.33 7.32 3.66 8 4 C5.36 3.67 2.72 3.34 0 3 C0 2.01 0 1.02 0 0 Z " fill="#E5A46F" transform="translate(71,24)"/>
<path d="M0 0 C0.66 0.33 1.32 0.66 2 1 C2.40729228 3.32156597 2.74438677 5.6568787 3 8 C2.01 7.67 1.02 7.34 0 7 C-0.38133299 5.0085944 -0.71325582 3.00720923 -1 1 C-0.67 0.67 -0.34 0.34 0 0 Z " fill="#8B3875" transform="translate(94,91)"/>
<path d="M0 0 C1.32 1.32 2.64 2.64 4 4 C3.34 5.32 2.68 6.64 2 8 C1.34 8 0.68 8 0 8 C0 5.36 0 2.72 0 0 Z " fill="#972B5B" transform="translate(100,40)"/>
<path d="M0 0 C2.97 0.495 2.97 0.495 6 1 C4.68 1.33 3.36 1.66 2 2 C2 4.31 2 6.62 2 9 C1.67 9 1.34 9 1 9 C0.67 6.03 0.34 3.06 0 0 Z " fill="#A7316A" transform="translate(101,14)"/>
<path d="M0 0 C1.98 1.65 3.96 3.3 6 5 C3 5 3 5 1.3125 3.625 C0 2 0 2 0 0 Z " fill="#000000" transform="translate(28,70)"/>
<path d="M0 0 C0.99 0.33 1.98 0.66 3 1 C2.01 1 1.02 1 0 1 C0 0.67 0 0.34 0 0 Z " fill="#000000" transform="translate(35,77)"/>
<path d="M0 0 C3 1 3 1 3 1 Z " fill="#000000" transform="translate(36,19)"/>
<path d="M0 0 C2 1 2 1 2 1 Z " fill="#000000" transform="translate(25,121)"/>
<path d="" fill="#000000" transform="translate(0,0)"/>
<path d="" fill="#000000" transform="translate(0,0)"/>
<path d="" fill="#000000" transform="translate(0,0)"/>
<path d="" fill="#000000" transform="translate(0,0)"/>
<path d="" fill="#000000" transform="translate(0,0)"/>
<path d="" fill="#000000" transform="translate(0,0)"/>
<path d="" fill="#000000" transform="translate(0,0)"/>
<path d="" fill="#000000" transform="translate(0,0)"/>
<path d="" fill="#000000" transform="translate(0,0)"/>
<path d="" fill="#000000" transform="translate(0,0)"/>
<path d="" fill="#000000" transform="translate(0,0)"/>
<path d="" fill="#000000" transform="translate(0,0)"/>
<path d="" fill="#000000" transform="translate(0,0)"/>
<path d="" fill="#000000" transform="translate(0,0)"/>
<path d="" fill="#000000" transform="translate(0,0)"/>
<path d="" fill="#000000" transform="translate(0,0)"/>
<path d="" fill="#000000" transform="translate(0,0)"/>
<path d="" fill="#000000" transform="translate(0,0)"/>
<path d="" fill="#000000" transform="translate(0,0)"/>
<path d="" fill="#000000" transform="translate(0,0)"/>
<path d="" fill="#000000" transform="translate(0,0)"/>
<path d="" fill="#000000" transform="translate(0,0)"/>
<path d="" fill="#000000" transform="translate(0,0)"/>
<path d="" fill="#000000" transform="translate(0,0)"/>
<path d="" fill="#000000" transform="translate(0,0)"/>
<path d="" fill="#000000" transform="translate(0,0)"/>
<path d="" fill="#000000" transform="translate(0,0)"/>
<path d="" fill="#000000" transform="translate(0,0)"/>
<path d="" fill="#000000" transform="translate(0,0)"/>
<path d="" fill="#000000" transform="translate(0,0)"/>
<path d="" fill="#000000" transform="translate(0,0)"/>
<path d="" fill="#000000" transform="translate(0,0)"/>
<path d="" fill="#000000" transform="translate(0,0)"/>
<path d="" fill="#000000" transform="translate(0,0)"/>
<path d="" fill="#000000" transform="translate(0,0)"/>
<path d="" fill="#000000" transform="translate(0,0)"/>
<path d="" fill="#000000" transform="translate(0,0)"/>
<path d="" fill="#000000" transform="translate(0,0)"/>
<path d="" fill="#000000" transform="translate(0,0)"/>
<path d="" fill="#000000" transform="translate(0,0)"/>
<path d="" fill="#000000" transform="translate(0,0)"/>
<path d="" fill="#000000" transform="translate(0,0)"/>
<path d="" fill="#000000" transform="translate(0,0)"/>
<path d="" fill="#000000" transform="translate(0,0)"/>
<path d="" fill="#000000" transform="translate(0,0)"/>
<path d="" fill="#000000" transform="translate(0,0)"/>
<path d="" fill="#000000" transform="translate(0,0)"/>
<path d="" fill="#000000" transform="translate(0,0)"/>
<path d="" fill="#000000" transform="translate(0,0)"/>
<path d="" fill="#000000" transform="translate(0,0)"/>
<path d="" fill="#000000" transform="translate(0,0)"/>
<path d="" fill="#000000" transform="translate(0,0)"/>
<path d="" fill="#000000" transform="translate(0,0)"/>
<path d="" fill="#000000" transform="translate(0,0)"/>
<path d="" fill="#000000" transform="translate(0,0)"/>
<path d="" fill="#000000" transform="translate(0,0)"/>
<path d="" fill="#000000" transform="translate(0,0)"/>
<path d="" fill="#000000" transform="translate(0,0)"/>
<path d="" fill="#000000" transform="translate(0,0)"/>
<path d="" fill="#000000" transform="translate(0,0)"/>
<path d="" fill="#000000" transform="translate(0,0)"/>
<path d="" fill="#000000" transform="translate(0,0)"/>
<path d="" fill="#000000" transform="translate(0,0)"/>
<path d="" fill="#000000" transform="translate(0,0)"/>
<path d="" fill="#000000" transform="translate(0,0)"/>
<path d="" fill="#000000" transform="translate(0,0)"/>
<path d="" fill="#000000" transform="translate(0,0)"/>
<path d="" fill="#000000" transform="translate(0,0)"/>
<path d="" fill="#000000" transform="translate(0,0)"/>
<path d="" fill="#000000" transform="translate(0,0)"/>
<path d="" fill="#000000" transform="translate(0,0)"/>
<path d="" fill="#000000" transform="translate(0,0)"/>
<path d="" fill="#000000" transform="translate(0,0)"/>
<path d="" fill="#000000" transform="translate(0,0)"/>
<path d="" fill="#000000" transform="translate(0,0)"/>
<path d="" fill="#000000" transform="translate(0,0)"/>
<path d="" fill="#000000" transform="translate(0,0)"/>
<path d="" fill="#000000" transform="translate(0,0)"/>
<path d="" fill="#000000" transform="translate(0,0)"/>
<path d="" fill="#000000" transform="translate(0,0)"/>
<path d="" fill="#000000" transform="translate(0,0)"/>
<path d="" fill="#000000" transform="translate(0,0)"/>
<path d="" fill="#000000" transform="translate(0,0)"/>
<path d="" fill="#000000" transform="translate(0,0)"/>
<path d="" fill="#000000" transform="translate(0,0)"/>
<path d="" fill="#000000" transform="translate(0,0)"/>
<path d="" fill="#000000" transform="translate(0,0)"/>
<path d="" fill="#000000" transform="translate(0,0)"/>
<path d="" fill="#000000" transform="translate(0,0)"/>
<path d="" fill="#000000" transform="translate(0,0)"/>
<path d="" fill="#000000" transform="translate(0,0)"/>
<path d="" fill="#000000" transform="translate(0,0)"/>
<path d="" fill="#000000" transform="translate(0,0)"/>
<path d="" fill="#000000" transform="translate(0,0)"/>
<path d="" fill="#000000" transform="translate(0,0)"/>
<path d="" fill="#000000" transform="translate(0,0)"/>
<path d="" fill="#000000" transform="translate(0,0)"/>
<path d="" fill="#000000" transform="translate(0,0)"/>
<path d="" fill="#000000" transform="translate(0,0)"/>
<path d="" fill="#000000" transform="translate(0,0)"/>
<path d="" fill="#000000" transform="translate(0,0)"/>
<path d="" fill="#000000" transform="translate(0,0)"/>
<path d="" fill="#000000" transform="translate(0,0)"/>
<path d="" fill="#000000" transform="translate(0,0)"/>
<path d="" fill="#000000" transform="translate(0,0)"/>
<path d="" fill="#000000" transform="translate(0,0)"/>
<path d="" fill="#000000" transform="translate(0,0)"/>
<path d="" fill="#000000" transform="translate(0,0)"/>
<path d="" fill="#000000" transform="translate(0,0)"/>
<path d="" fill="#000000" transform="translate(0,0)"/>
<path d="" fill="#000000" transform="translate(0,0)"/>
<path d="" fill="#000000" transform="translate(0,0)"/>
<path d="" fill="#000000" transform="translate(0,0)"/>
<path d="" fill="#000000" transform="translate(0,0)"/>
<path d="" fill="#000000" transform="translate(0,0)"/>
<path d="" fill="#000000" transform="translate(0,0)"/>
<path d="" fill="#000000" transform="translate(0,0)"/>
<path d="" fill="#000000" transform="translate(0,0)"/>
<path d="" fill="#000000" transform="translate(0,0)"/>
<path d="" fill="#000000" transform="translate(0,0)"/>
<path d="" fill="#000000" transform="translate(0,0)"/>
<path d="" fill="#000000" transform="translate(0,0)"/>
<path d="" fill="#000000" transform="translate(0,0)"/>
<path d="" fill="#000000" transform="translate(0,0)"/>
<path d="" fill="#000000" transform="translate(0,0)"/>
<path d="" fill="#000000" transform="translate(0,0)"/>
<path d="" fill="#000000" transform="translate(0,0)"/>
<path d="" fill="#000000" transform="translate(0,0)"/>
<path d="" fill="#000000" transform="translate(0,0)"/>
</svg>
