<svg xmlns="http://www.w3.org/2000/svg" xmlns:xlink="http://www.w3.org/1999/xlink" width="200" zoomAndPan="magnify" viewBox="0 0 150 74.999997" height="100" preserveAspectRatio="xMidYMid meet" version="1.0"><defs><g/></defs><g fill="#013f64" fill-opacity="1"><g transform="translate(0.726565, 56.349991)"><g><path d="M 4.671875 0 L 4.671875 -37.125 L 12.546875 -37.125 L 12.546875 -6.5 L 27.59375 -6.5 L 27.59375 0 Z M 4.671875 0 "/></g></g></g><g fill="#013f64" fill-opacity="1"><g transform="translate(30.101315, 56.349991)"><g><path d="M 4.671875 0 L 4.671875 -37.125 L 12.546875 -37.125 L 12.546875 0 Z M 4.671875 0 "/></g></g></g><g fill="#013f64" fill-opacity="1"><g transform="translate(47.314864, 56.349991)"><g><path d="M 35.46875 -18.921875 C 35.46875 -12.804688 33.726562 -8.125 30.25 -4.875 C 26.769531 -1.625 21.75 0 15.1875 0 L 4.671875 0 L 4.671875 -37.125 L 16.328125 -37.125 C 22.390625 -37.125 27.09375 -35.523438 30.4375 -32.328125 C 33.789062 -29.128906 35.46875 -24.660156 35.46875 -18.921875 Z M 27.296875 -18.71875 C 27.296875 -26.6875 23.773438 -30.671875 16.734375 -30.671875 L 12.546875 -30.671875 L 12.546875 -6.5 L 15.921875 -6.5 C 23.503906 -6.5 27.296875 -10.570312 27.296875 -18.71875 Z M 27.296875 -18.71875 "/></g></g></g><g fill="#006ead" fill-opacity="1"><g transform="translate(85.804683, 56.349991)"><g><path d="M 26.046875 0 L 4.671875 0 L 4.671875 -37.125 L 26.046875 -37.125 L 26.046875 -30.671875 L 12.546875 -30.671875 L 12.546875 -22.515625 L 25.109375 -22.515625 L 25.109375 -16.078125 L 12.546875 -16.078125 L 12.546875 -6.5 L 26.046875 -6.5 Z M 26.046875 0 "/></g></g></g><g fill="#006ead" fill-opacity="1"><g transform="translate(114.925546, 56.349991)"><g><path d="M 12.546875 -20.640625 L 15.078125 -20.640625 C 17.566406 -20.640625 19.40625 -21.050781 20.59375 -21.875 C 21.78125 -22.707031 22.375 -24.015625 22.375 -25.796875 C 22.375 -27.554688 21.765625 -28.804688 20.546875 -29.546875 C 19.335938 -30.296875 17.46875 -30.671875 14.9375 -30.671875 L 12.546875 -30.671875 Z M 12.546875 -14.25 L 12.546875 0 L 4.671875 0 L 4.671875 -37.125 L 15.484375 -37.125 C 20.535156 -37.125 24.269531 -36.203125 26.6875 -34.359375 C 29.101562 -32.523438 30.3125 -29.738281 30.3125 -26 C 30.3125 -23.8125 29.710938 -21.867188 28.515625 -20.171875 C 27.316406 -18.472656 25.613281 -17.140625 23.40625 -16.171875 C 29 -7.828125 32.640625 -2.4375 34.328125 0 L 25.59375 0 L 16.734375 -14.25 Z M 12.546875 -14.25 "/></g></g></g></svg>