<svg xmlns="http://www.w3.org/2000/svg" xmlns:xlink="http://www.w3.org/1999/xlink" width="200" zoomAndPan="magnify" viewBox="0 0 150 74.999997" height="100" preserveAspectRatio="xMidYMid meet" version="1.0"><defs><g/></defs><g fill="#000000" fill-opacity="1"><g transform="translate(13.898439, 51.749995)"><g><path d="M 9.171875 -14.359375 L 11.0625 -14.359375 C 12.832031 -14.359375 14.15625 -14.707031 15.03125 -15.40625 C 15.90625 -16.101562 16.34375 -17.125 16.34375 -18.46875 C 16.34375 -19.8125 15.972656 -20.804688 15.234375 -21.453125 C 14.503906 -22.097656 13.351562 -22.421875 11.78125 -22.421875 L 9.171875 -22.421875 Z M 22.15625 -18.671875 C 22.15625 -15.742188 21.242188 -13.507812 19.421875 -11.96875 C 17.597656 -10.425781 15.003906 -9.65625 11.640625 -9.65625 L 9.171875 -9.65625 L 9.171875 0 L 3.421875 0 L 3.421875 -27.125 L 12.078125 -27.125 C 15.367188 -27.125 17.867188 -26.414062 19.578125 -25 C 21.296875 -23.582031 22.15625 -21.472656 22.15625 -18.671875 Z M 22.15625 -18.671875 "/></g></g></g><g fill="#000000" fill-opacity="1"><g transform="translate(37.75486, 51.749995)"><g><path d="M 16.140625 0 L 15.046875 -2.828125 L 14.90625 -2.828125 C 13.945312 -1.617188 12.960938 -0.78125 11.953125 -0.3125 C 10.953125 0.144531 9.640625 0.375 8.015625 0.375 C 6.023438 0.375 4.457031 -0.191406 3.3125 -1.328125 C 2.164062 -2.472656 1.59375 -4.097656 1.59375 -6.203125 C 1.59375 -8.398438 2.363281 -10.019531 3.90625 -11.0625 C 5.445312 -12.113281 7.769531 -12.691406 10.875 -12.796875 L 14.46875 -12.921875 L 14.46875 -13.828125 C 14.46875 -15.929688 13.394531 -16.984375 11.25 -16.984375 C 9.59375 -16.984375 7.644531 -16.476562 5.40625 -15.46875 L 3.53125 -19.296875 C 5.914062 -20.546875 8.5625 -21.171875 11.46875 -21.171875 C 14.25 -21.171875 16.378906 -20.5625 17.859375 -19.34375 C 19.347656 -18.132812 20.09375 -16.296875 20.09375 -13.828125 L 20.09375 0 Z M 14.46875 -9.609375 L 12.28125 -9.53125 C 10.632812 -9.488281 9.410156 -9.191406 8.609375 -8.640625 C 7.804688 -8.097656 7.40625 -7.269531 7.40625 -6.15625 C 7.40625 -4.5625 8.320312 -3.765625 10.15625 -3.765625 C 11.457031 -3.765625 12.5 -4.140625 13.28125 -4.890625 C 14.070312 -5.648438 14.46875 -6.65625 14.46875 -7.90625 Z M 14.46875 -9.609375 "/></g></g></g><g fill="#000000" fill-opacity="1"><g transform="translate(60.702288, 51.749995)"><g><path d="M 14.546875 -21.140625 C 15.316406 -21.140625 15.953125 -21.082031 16.453125 -20.96875 L 16.03125 -15.65625 C 15.570312 -15.78125 15.015625 -15.84375 14.359375 -15.84375 C 12.554688 -15.84375 11.148438 -15.378906 10.140625 -14.453125 C 9.128906 -13.523438 8.625 -12.226562 8.625 -10.5625 L 8.625 0 L 2.96875 0 L 2.96875 -20.75 L 7.25 -20.75 L 8.09375 -17.25 L 8.375 -17.25 C 9.007812 -18.414062 9.875 -19.351562 10.96875 -20.0625 C 12.070312 -20.78125 13.265625 -21.140625 14.546875 -21.140625 Z M 14.546875 -21.140625 "/></g></g></g><g fill="#000000" fill-opacity="1"><g transform="translate(77.954598, 51.749995)"><g><path d="M 8.40625 -11.28125 L 10.875 -14.4375 L 16.6875 -20.75 L 23.0625 -20.75 L 14.828125 -11.75 L 23.5625 0 L 17.03125 0 L 11.0625 -8.40625 L 8.625 -6.453125 L 8.625 0 L 2.96875 0 L 2.96875 -28.875 L 8.625 -28.875 L 8.625 -16 L 8.328125 -11.28125 Z M 8.40625 -11.28125 "/></g></g></g><g fill="#000000" fill-opacity="1"><g transform="translate(101.514204, 51.749995)"><g><path d="M 3.421875 0 L 3.421875 -27.125 L 9.171875 -27.125 L 9.171875 0 Z M 3.421875 0 "/></g></g></g><g fill="#000000" fill-opacity="1"><g transform="translate(114.091695, 51.749995)"><g><path d="M 13.875 0 L 8.125 0 L 8.125 -22.34375 L 0.765625 -22.34375 L 0.765625 -27.125 L 21.25 -27.125 L 21.25 -22.34375 L 13.875 -22.34375 Z M 13.875 0 "/></g></g></g></svg>